# xmcd
# 
# Track frame offsets:
#     150
#     14395
#     47550
#     73818
#     103370
#     132275
#     158328
#     178118
#     209303
#     240773
#     255720
#     272885
# 
# Disc length: 3880
# 
# Revision: 2
# Processed by: cddbd v1.5.2PL0 Copyright (c) Steve Scherf et al.
# Submitted via: fre:ac v1.0.17
# 
DISCID=a40f260c
DTITLE=Various Artist - ジャズ・ギター名演集 Disc-1
DYEAR=2003
DGENRE=Jazz
TTITLE0=V.A. - バーニー・ケッセル/バードランドの子守唄
TTITLE1=V.A. - ケニー・バレル&ジョン・コルトレーン/フレイト・トレーン
TTITLE2=V.A. - ウエス・モンゴメリー/モーニン
TTITLE3=V.A. - ザ・ポール・ウイナーズ/サテン・ドール
TTITLE4=V.A. - タル・ファーロウ/ストレート、ノー・チェイサー
TTITLE5=V.A. - ミルト・ジャクソン&ウエス・モンゴメリー/ステイブルメイツ
TTITLE6=V.A. - ザ・ポール・ウイナーズ/ヴォラーレ
TTITLE7=V.A. - ケニー・バレル/イッツ・ゲティング・ダーク
TTITLE8=V.A. - パット・マルティーノ/トリック
TTITLE9=V.A. - バーニー・ケッセル/星へのきざはし
TTITLE10=V.A. - ウエス・モンゴメリー/酒とバラの日々
TTITLE11=V.A. - ザ・ポール・ウイナーズ/グリーン・ドルフィン・ストリート
EXTD=
EXTT0=
EXTT1=
EXTT2=
EXTT3=
EXTT4=
EXTT5=
EXTT6=
EXTT7=
EXTT8=
EXTT9=
EXTT10=
EXTT11=
PLAYORDER=
